<svg id="Capa_1" data-name="Capa 1" xmlns="http://www.w3.org/2000/svg" viewBox="0 0 518.78 100.41"><defs><style>.cls-1{fill:#000e66;}</style></defs><path class="cls-1" d="M151.63,72.27c-.08-.19-.28-.33-.35-.52l-.5-1.11-1-2.23-4.08-8.89-1.52-3.33-3.45,1.22-9.52,3.38-2.38.84-1.19.42a3.74,3.74,0,0,1-1.23.33c-.22,0-.35.26-.5.48l-.44.65c-.29.44-.57.9-.85,1.37l-.82,1.46c-.26.53-.53,1-.78,1.59.55.29,1.07.51,1.61.75l1.55.61c.52.19,1,.37,1.53.53l.75.24c.25.07.52.18.69,0a4,4,0,0,1,1.16-.52l1.19-.42,2.38-.84,1-.35a22.63,22.63,0,0,1-4.26,5.09,30,30,0,0,1-7.72,5.06,27.34,27.34,0,0,1-12.53,2.5A20.66,20.66,0,0,1,99.49,77h0a26.76,26.76,0,0,1-2.22-1.64L96.83,75c-.23-.19-.46-.39-.7-.61L96,74.24c-.59-.54-1.2-1.14-1.79-1.8l-.4-.42h0c-.32-.38-.64-.77-1-1.19-4.19-5.72-4.65-6.94-4.65-6.94A21.58,21.58,0,0,1,85.87,55a12.31,12.31,0,0,1,1.92-7.36,12.11,12.11,0,0,1,5-4.55,9.46,9.46,0,0,1,8.48.21,14.62,14.62,0,0,1,6.79,7.46s2.19,4.76,1.67,12.5L121,57.21a28.16,28.16,0,0,0,5.22-3.32,4.42,4.42,0,0,0,1.59-3.17,12.17,12.17,0,0,0-1.41-5.1q-5.26-11.46-14.08-14.3T92.2,33.65A33.87,33.87,0,0,0,78.26,45.18,34.88,34.88,0,0,0,72,62a33.89,33.89,0,0,0,3,17.84A34.92,34.92,0,0,0,86.66,94.11a33.56,33.56,0,0,0,16.69,6.16,34.92,34.92,0,0,0,17.9-3.17,36.54,36.54,0,0,0,14.42-11.49,31.82,31.82,0,0,0,6-15.6l.79,1.73,1,2.23.51,1.11c.1.18.07.42.17.6s.37.28.57.41A46.22,46.22,0,0,0,150.19,79a45.56,45.56,0,0,0,1.38-6A1.94,1.94,0,0,0,151.63,72.27Z"/><path class="cls-1" d="M2,98.79a5,5,0,0,1-2-4,4.85,4.85,0,0,1,1.08-3.36,13.48,13.48,0,0,1,3.48-2.53c.32-.16,1.12-.66,2.41-1.5A13.4,13.4,0,0,0,10.45,84a16.53,16.53,0,0,0,2.94-6.49,47.2,47.2,0,0,0,.78-9.61,22.13,22.13,0,0,0-1-7.38,12.91,12.91,0,0,0-2.46-4.39A26.3,26.3,0,0,0,7,52.85a13.3,13.3,0,0,1-4.33-4.08,5.13,5.13,0,0,1-.72-2.41q0-2.64,2.88-4.8a11.44,11.44,0,0,1,2.47-1.44q1.38-.6,1.86-.84A28.59,28.59,0,0,0,15.85,36c.48-.32,1-.66,1.57-1s1.12-.7,1.68-1a38.39,38.39,0,0,1,4.68-2.94,8,8,0,0,1,3.61-.9q6,0,6,8.29a46,46,0,0,1-.6,6.72c-.16.88-.32,2.28-.48,4.21a51.51,51.51,0,0,1,8.11-10,59.78,59.78,0,0,1,9.79-7.87,22.32,22.32,0,0,1,8.4-3.6A19.6,19.6,0,0,1,61,27.63q4.08,0,3.72,3.72,0,.24-.48,3.12c-.08.4-.32,2-.72,4.81a61,61,0,0,0-.6,8.64,58.54,58.54,0,0,0,.48,6.49,51.73,51.73,0,0,1,.48,5.17q0,4.44-2.76,5.52a3,3,0,0,1-1.32.24,4.22,4.22,0,0,1-3.19-1.5A53.69,53.69,0,0,1,52.85,59a45.76,45.76,0,0,0-3.72-5,8.18,8.18,0,0,0-6-2.4c-2.88,0-5.45,1.4-7.69,4.2S32,62.94,31.71,68.94a49.32,49.32,0,0,0,1,9.19A16.44,16.44,0,0,0,35.43,84a9.27,9.27,0,0,0,3.07,2.58,28.46,28.46,0,0,0,4.38,1.74,18.46,18.46,0,0,1,4.74,2.16,4.31,4.31,0,0,1,1.51,3.73,5.6,5.6,0,0,1-2.05,4.56,7.49,7.49,0,0,1-4.92,1.68q-1.68,0-3.48-.12l-3.49-.24a94.6,94.6,0,0,0-9.85-.6q-2.16,0-8.16.48-6.5.48-9.85.48A8.24,8.24,0,0,1,2,98.79Z"/><path class="cls-1" d="M153.32,99a4.52,4.52,0,0,1-2-3.84,5.51,5.51,0,0,1,.84-3.3,13.6,13.6,0,0,1,2.76-2.59q1.8-1.32,3.06-2.4A17.12,17.12,0,0,0,160.58,84a17.67,17.67,0,0,0,3-5.95,47.65,47.65,0,0,0,.72-10.15V64.38a33.43,33.43,0,0,0-1-9.55q-1-3.18-2.46-4.14a10.76,10.76,0,0,0-3.73-1.44,14.39,14.39,0,0,1-2.76-1,4.16,4.16,0,0,1-1.68-1.68,5.69,5.69,0,0,1-.72-2.76,4.41,4.41,0,0,1,2.88-4.44,16.33,16.33,0,0,0,4.68-2.83,20.17,20.17,0,0,0,3.67-4.8,63.89,63.89,0,0,0,4.14-9.19,28.42,28.42,0,0,1,9.13-12A47,47,0,0,1,191.09,2.7,50.42,50.42,0,0,1,207,0a4.31,4.31,0,0,1,3.24,1,4.71,4.71,0,0,1,1,3.3,42.67,42.67,0,0,1-.6,6.37q-.24,1.2-.36,2.34T210,15.25l-.24,3.25a30,30,0,0,1-1.08,7c-.48,1.37-1.64,2.13-3.48,2.29a3,3,0,0,1-2.59-1.15A21,21,0,0,1,200,22.7a24.47,24.47,0,0,0-3.66-5.1,5.81,5.81,0,0,0-4.27-1.75q-4.56,0-6.78,5.59T182.33,37l21.5-.6q4.08-.12,4.08,2.41a6.33,6.33,0,0,1-.6,2.16q-.48.84-2.28,4.32A9.43,9.43,0,0,1,200.28,50a17.35,17.35,0,0,1-7.75.84l-10.69-.72V60.66q0,18.38,3.73,23.3a17.12,17.12,0,0,0,2.58,2.88q1.26,1.08,3.06,2.4A13.7,13.7,0,0,1,194,91.83a5.51,5.51,0,0,1,.84,3.3,4.5,4.5,0,0,1-2,3.84,8.9,8.9,0,0,1-5.34,1.44q-1.56,0-3.72-.12c-1.44-.08-2.53-.16-3.25-.24q-4.8-.48-7.44-.48c-1.13,0-2.33.06-3.61.18s-2.24.18-2.88.18a77.2,77.2,0,0,1-7.93.48A8.9,8.9,0,0,1,153.32,99Z"/><path class="cls-1" d="M215.4,98.79a4.92,4.92,0,0,1-2-4,4.85,4.85,0,0,1,1.08-3.36,13.48,13.48,0,0,1,3.48-2.53q.48-.24,2.4-1.5A13.59,13.59,0,0,0,223.81,84a16.53,16.53,0,0,0,2.94-6.49,47.2,47.2,0,0,0,.78-9.61,22.13,22.13,0,0,0-1-7.38,12.91,12.91,0,0,0-2.46-4.39,27,27,0,0,0-3.73-3.24A13.36,13.36,0,0,1,216,48.77a5.13,5.13,0,0,1-.72-2.41q0-2.64,2.88-4.8a11.36,11.36,0,0,1,2.46-1.44q1.38-.6,1.86-.84A28.47,28.47,0,0,0,229.21,36l1.56-1q.84-.54,1.68-1a39.15,39.15,0,0,1,4.69-2.94,8,8,0,0,1,3.6-.9q6,0,6,8.29a46,46,0,0,1-.6,6.72c-.17.88-.32,2.28-.48,4.21a51.82,51.82,0,0,1,8.1-10,60.64,60.64,0,0,1,9.79-7.87,22.36,22.36,0,0,1,8.41-3.6,19.48,19.48,0,0,1,2.4-.24c2.72,0,4,1.24,3.73,3.72,0,.16-.17,1.2-.48,3.12-.09.4-.33,2-.73,4.81a61,61,0,0,0-.6,8.64,58.54,58.54,0,0,0,.48,6.49,51.73,51.73,0,0,1,.48,5.17q0,4.44-2.76,5.52a3,3,0,0,1-1.32.24,4.21,4.21,0,0,1-3.18-1.5A55.25,55.25,0,0,1,266.2,59a45.76,45.76,0,0,0-3.72-5,8.14,8.14,0,0,0-6-2.4q-4.34,0-7.69,4.2t-3.73,13.21a48.32,48.32,0,0,0,1,9.19,16.44,16.44,0,0,0,2.7,5.83,9.34,9.34,0,0,0,3.06,2.58,28.21,28.21,0,0,0,4.39,1.74A18.46,18.46,0,0,1,261,90.44a4.31,4.31,0,0,1,1.5,3.73,5.6,5.6,0,0,1-2,4.56,7.5,7.5,0,0,1-4.93,1.68q-1.68,0-3.48-.12l-3.48-.24a94.92,94.92,0,0,0-9.85-.6c-1.44,0-4.17.16-8.17.48-4.32.32-7.61.48-9.85.48A8.23,8.23,0,0,1,215.4,98.79Z"/><path class="cls-1" d="M295.05,87.87a33.6,33.6,0,0,1-7.64-16.07,35.06,35.06,0,0,1,1.67-18.35,33.92,33.92,0,0,1,10.31-14.87,34.93,34.93,0,0,1,16.21-7.65,33.9,33.9,0,0,1,18,1.49q11.64,4.17,16,12.36t.08,20.07a11.9,11.9,0,0,1-2.56,4.63,4.42,4.42,0,0,1-3.35,1.16,27.36,27.36,0,0,1-6-1.28L308,61a27.6,27.6,0,0,0,.32,5.86,21.06,21.06,0,0,0,5.51,11.86,27.16,27.16,0,0,0,10.71,7,29.91,29.91,0,0,0,9.06,1.78,21,21,0,0,0,7.9-1.06c1.82-.79,3.18-1,4.08-.7a2.61,2.61,0,0,1,1.16,1,2.7,2.7,0,0,1,.51,2.48,8,8,0,0,1-2.42,2.83A32.05,32.05,0,0,1,328.42,100a36.57,36.57,0,0,1-18.35-1.86A34.89,34.89,0,0,1,295.05,87.87Zm38-32.06a14.68,14.68,0,0,0,.36-10.08,9.5,9.5,0,0,0-5.93-6.08,12.09,12.09,0,0,0-6.79-.27,12.29,12.29,0,0,0-6.51,3.92,21.52,21.52,0,0,0-4.51,8Z"/><path class="cls-1" d="M379.89,99.81a76.17,76.17,0,0,1-11.59-2.16,5.88,5.88,0,0,1-3-1.62,4.1,4.1,0,0,1-.72-2.94,58.39,58.39,0,0,0,.24-9.37,13.54,13.54,0,0,0-.18-2.1,12.07,12.07,0,0,1-.18-1.75,16.69,16.69,0,0,1-.36-3.24,3.57,3.57,0,0,1,2.17-3.6,3,3,0,0,1,1.32-.24,4.44,4.44,0,0,1,3.06,1.44,28.54,28.54,0,0,1,3.42,4.2l1.44,2a23.41,23.41,0,0,0,8.59,6.6A26.23,26.23,0,0,0,395.8,90q10.69,0,10.69-5.16,0-2.28-3.84-4a143.45,143.45,0,0,0-14.29-5q-12.14-3.72-18.2-9.49a19.32,19.32,0,0,1-6.07-14.65,16.22,16.22,0,0,1,4.69-12,27.19,27.19,0,0,1,11.59-6.79,48.23,48.23,0,0,1,14.11-2.1,69.7,69.7,0,0,1,12.61,1.32,40.14,40.14,0,0,0,7,.84,28.38,28.38,0,0,1,5.23.3q1.26.3,1.26,2.1c0,.48-.06,1.68-.18,3.61s-.14,4.36-.06,7.32a13.54,13.54,0,0,0,.18,2.1,12.34,12.34,0,0,1,.18,1.75,19,19,0,0,1,.36,3.48q0,3-2.17,4a3,3,0,0,1-1.32.24,4.63,4.63,0,0,1-3.42-1.8,26.72,26.72,0,0,1-2.88-3.84l-1.62-2.64a18,18,0,0,0-7.33-6.55,21.38,21.38,0,0,0-9.85-2.46q-9.62,0-9.61,6,0,2.77,3.42,4.87T398.33,56q13.56,4.1,20.17,9.55A17.85,17.85,0,0,1,425.11,80a15.78,15.78,0,0,1-4.2,11,26.25,26.25,0,0,1-11.47,7,52.22,52.22,0,0,1-16.4,2.4A127.07,127.07,0,0,1,379.89,99.81Z"/><path class="cls-1" d="M435.78,99a4.52,4.52,0,0,1-2-3.84,6.92,6.92,0,0,1,.84-3.72,12.68,12.68,0,0,1,2.76-2.89A34.94,34.94,0,0,0,441.85,84c1.36-1.84,2.32-4.73,2.88-8.65a106.42,106.42,0,0,0,.84-14.65V49q0-6.37-.24-9.67A17.1,17.1,0,0,0,444,33.51a7.37,7.37,0,0,0-3.66-3.72,9.44,9.44,0,0,0-1.75-.78l-1.26-.42a12.21,12.21,0,0,1-2.58-1.08,5.53,5.53,0,0,1-1.86-2.05,5.1,5.1,0,0,1-.72-2.4q0-2.64,2.88-4.8,1-.72,4.33-2.77,2.88-1.68,5.76-3.72A23.36,23.36,0,0,0,448.33,9c1-1.08,1.76-1.82,2.17-2.22a38.13,38.13,0,0,1,4.8-4.57,8.86,8.86,0,0,1,5.16-2,4.93,4.93,0,0,1,4.21,2.16A8.22,8.22,0,0,1,466.23,7a15.34,15.34,0,0,1-.54,3.78L465,13.33a64.67,64.67,0,0,0-1.56,12.19q-.36,7.4-.36,17.48v3.84A29.59,29.59,0,0,1,474.16,35,30.71,30.71,0,0,1,490,31q10,0,15.74,5.7t5.76,16.52a38.23,38.23,0,0,1-.48,6.25,115.79,115.79,0,0,0-1.32,14.17A19.6,19.6,0,0,0,510.85,81a16.73,16.73,0,0,0,3.79,5.4,17.93,17.93,0,0,1,3.54,4.44,8.5,8.5,0,0,1,.54,4.33A5.26,5.26,0,0,1,516.56,99a8.43,8.43,0,0,1-5.17,1.44q-2.4,0-7.2-.48-5.06-.48-7.81-.48a36.92,36.92,0,0,0-5.53.48,32.32,32.32,0,0,1-5.28.48q-6.13,0-6.13-5.52a5.88,5.88,0,0,1,.78-2.94,18.08,18.08,0,0,1,2.59-3.31,73,73,0,0,0,5-7.08,49,49,0,0,0,4.2-9.25A26,26,0,0,0,493.5,64a21.72,21.72,0,0,0-1.93-9.13,16.71,16.71,0,0,0-5.28-6.67A12.16,12.16,0,0,0,479,45.76a14.48,14.48,0,0,0-5.28,1.08,16,16,0,0,0-8.35,7.81,27.08,27.08,0,0,0-2.82,12.49A34.64,34.64,0,0,0,466.83,84q2.4,4.2,3.42,6.48a10.45,10.45,0,0,1,1,4.21,5.32,5.32,0,0,1-1.8,4.14,6.23,6.23,0,0,1-4.32,1.62q-1.08,0-2.4-.12t-2-.24a30.31,30.31,0,0,0-6.37-.6,46.61,46.61,0,0,0-5.89.48,63.29,63.29,0,0,1-7.32.48A8.91,8.91,0,0,1,435.78,99Z"/></svg>