<svg id="Capa_1" data-name="Capa 1" xmlns="http://www.w3.org/2000/svg" viewBox="0 0 180 180"><defs><style>.cls-1{fill:#fff5d6;}.cls-2{fill:#000e66;}</style></defs><rect class="cls-1" width="180" height="180"/><path class="cls-2" d="M157.6,101.17c-.11-.3-.44-.52-.55-.83l-.82-1.8-1.65-3.61L148,80.52l-2.47-5.39-5.59,2L124.5,82.58,120.64,84l-1.93.68a6,6,0,0,1-2,.53c-.36,0-.57.42-.81.77L115.21,87c-.47.72-.93,1.46-1.38,2.23l-1.33,2.36c-.43.85-.86,1.65-1.26,2.57.89.47,1.74.82,2.6,1.21l2.52,1c.83.31,1.66.59,2.47.86l1.22.38c.41.12.83.29,1.12.08a6.4,6.4,0,0,1,1.87-.84l1.93-.68,3.86-1.37,1.6-.56a36,36,0,0,1-6.9,8.24A47.83,47.83,0,0,1,111,110.66a43.93,43.93,0,0,1-20.29,4,33.35,33.35,0,0,1-17.58-5.91h0a39.83,39.83,0,0,1-3.61-2.64c-.23-.18-.46-.38-.69-.58s-.75-.63-1.14-1l-.26-.24c-1-.86-1.93-1.84-2.9-2.91-.21-.23-.42-.43-.64-.67l0,0q-.8-.92-1.53-1.92c-6.79-9.27-7.53-11.25-7.53-11.25A34.85,34.85,0,0,1,51.1,73.26a19.81,19.81,0,0,1,3.11-11.9A19.52,19.52,0,0,1,62.38,54a15.39,15.39,0,0,1,13.75.34q7,3.42,11,12.08s3.55,7.71,2.71,20.25l18.09-9.87a44.79,44.79,0,0,0,8.45-5.37,7.19,7.19,0,0,0,2.57-5.13c.09-2-.66-4.73-2.28-8.27q-8.5-18.57-22.8-23.15T61.34,38.62A55,55,0,0,0,38.76,57.3,56.5,56.5,0,0,0,28.65,84.51a55,55,0,0,0,4.88,28.9,56.68,56.68,0,0,0,18.84,23.15,54.41,54.41,0,0,0,27,10,56.45,56.45,0,0,0,29-5.15,58.93,58.93,0,0,0,23.36-18.61,51.48,51.48,0,0,0,9.75-25.27l1.29,2.82,1.64,3.6.83,1.8c.16.29.12.68.27,1s.6.45.92.66a71,71,0,0,0,8.83,4.68,73.23,73.23,0,0,0,2.22-9.73A2.68,2.68,0,0,0,157.6,101.17Z"/></svg>